# xmcd
#
# Track frame offsets: 
#        150
#        44340
#        70519
#        91861
#        144905
#        171292
#
# Disc length: 3333 seconds
#
# Revision: 0
# Processed by: cddbd v1.5.2PL0 Copyright (c) Steve Scherf et al.
# Submitted via: ExactAudioCopy v0.95b3
#
DISCID=450d0306
DTITLE=Miles Davis  - Kind of Blue  50th Anniversary Collector's Editi
DTITLE=on - CD2
DYEAR=1900
DGENRE=
TTITLE0=On the Green Dolphin Street
TTITLE1=Dance
TTITLE2=Stella by Starlight
TTITLE3=Love for Sale
TTITLE4=Dance (Alternate Take)
TTITLE5=So What
EXTD=
EXTT0=
EXTT1=
EXTT2=
EXTT3=
EXTT4=
EXTT5=
PLAYORDER=
